<svg width="200" height="200" viewBox="0 0 200 200" fill="none" xmlns="http://www.w3.org/2000/svg">
<g clip-path="url(#clip0_66_1087)">
<path fill-rule="evenodd" clip-rule="evenodd" d="M35.6902 0C15.9791 0 0 15.9791 0 35.6902V164.31C0 184.021 15.9791 200 35.6902 200H164.31C184.021 200 200 184.021 200 164.31V35.6902C200 15.9791 184.021 0 164.31 0H35.6902ZM84.4031 62.0834V63.3344L40.2363 107.501L40.2363 62.0834C40.2363 49.8871 50.1234 40 62.3197 40C74.516 40 84.4031 49.8871 84.4031 62.0834ZM65.2593 159.687C58.7624 160.835 51.8276 158.899 46.8085 153.88C37.7305 144.802 37.7305 130.083 46.8085 121.005L121.193 46.6208C129.817 37.9967 143.8 37.9967 152.424 46.6208C161.048 55.2449 161.048 69.2273 152.424 77.8514L81.4664 148.809L81.4661 148.809L76.3956 153.88C73.7339 156.541 70.5335 158.336 67.1453 159.263C66.5225 159.434 65.8934 159.575 65.2602 159.687L65.2593 159.687ZM119.105 139.316C119.105 150.609 128.26 159.764 139.553 159.764C150.845 159.764 160 150.609 160 139.316C160 128.024 150.845 118.869 139.553 118.869C128.26 118.869 119.105 128.024 119.105 139.316Z" fill="#000025"/>
</g>
<defs>
<clipPath id="clip0_66_1087">
<rect width="200" height="200" fill="white"/>
</clipPath>
</defs>
</svg>
